<?xml version="1.0" encoding="UTF-8"?>
<svg xmlns="http://www.w3.org/2000/svg" viewBox="0 0 1600 1000" preserveAspectRatio="xMidYMid slice">

  <!-- ═══════════════════════════════════════════════════════
       DEFS — gradients, patterns, filters
  ═══════════════════════════════════════════════════════ -->
  <defs>

    <!-- Carpet base: deep red, lit from above -->
    <linearGradient id="carpetBase" x1="0" y1="0" x2="0" y2="1">
      <stop offset="0%"   stop-color="#6b1f2a"/>
      <stop offset="55%"  stop-color="#4a1620"/>
      <stop offset="100%" stop-color="#2d0d16"/>
    </linearGradient>

    <!-- Path color: lighter red carpet runner -->
    <linearGradient id="pathGrad" x1="0" y1="0" x2="0" y2="1">
      <stop offset="0%"   stop-color="#9c3a4f"/>
      <stop offset="100%" stop-color="#7a2638"/>
    </linearGradient>

    <!-- Machine zone: subtle purple tonal shift -->
    <radialGradient id="zoneGlow" cx="50%" cy="50%" r="50%">
      <stop offset="0%"   stop-color="#3d2a55" stop-opacity="0.55"/>
      <stop offset="70%"  stop-color="#2d1b3d" stop-opacity="0.35"/>
      <stop offset="100%" stop-color="#2d1b3d" stop-opacity="0"/>
    </radialGradient>

    <!-- Warm pool of light over zones -->
    <radialGradient id="lightPool" cx="50%" cy="50%" r="50%">
      <stop offset="0%"   stop-color="#e8c87a" stop-opacity="0.28"/>
      <stop offset="50%"  stop-color="#c9a961" stop-opacity="0.10"/>
      <stop offset="100%" stop-color="#c9a961" stop-opacity="0"/>
    </radialGradient>

    <!-- Bar area: cooler blue lighting -->
    <radialGradient id="barLight" cx="50%" cy="50%" r="50%">
      <stop offset="0%"   stop-color="#3a5a8a" stop-opacity="0.45"/>
      <stop offset="100%" stop-color="#0f1a3d" stop-opacity="0"/>
    </radialGradient>

    <!-- Edge vignette -->
    <radialGradient id="vignette" cx="50%" cy="50%" r="70%">
      <stop offset="0%"   stop-color="#000000" stop-opacity="0"/>
      <stop offset="60%"  stop-color="#000000" stop-opacity="0.15"/>
      <stop offset="100%" stop-color="#000000" stop-opacity="0.7"/>
    </radialGradient>

    <!-- Entrance glow -->
    <radialGradient id="entranceGlow" cx="50%" cy="50%" r="50%">
      <stop offset="0%"   stop-color="#e8c87a" stop-opacity="0.55"/>
      <stop offset="100%" stop-color="#c9a961" stop-opacity="0"/>
    </radialGradient>

    <!-- Carpet swirl pattern (damask-style) -->
    <pattern id="swirlPattern" x="0" y="0" width="120" height="120" patternUnits="userSpaceOnUse">
      <g fill="none" stroke="#8a3548" stroke-width="1.2" stroke-opacity="0.35">
        <path d="M 60,20 C 80,20 90,40 80,55 C 72,68 55,65 52,52 C 50,42 58,35 65,38 C 70,40 70,48 65,50"/>
        <path d="M 60,100 C 40,100 30,80 40,65 C 48,52 65,55 68,68 C 70,78 62,85 55,82 C 50,80 50,72 55,70"/>
        <path d="M 10,10 Q 20,15 15,25 Q 10,30 5,20 Z"/>
        <path d="M 110,10 Q 100,15 105,25 Q 110,30 115,20 Z"/>
        <path d="M 10,110 Q 20,105 15,95 Q 10,90 5,100 Z"/>
        <path d="M 110,110 Q 100,105 105,95 Q 110,90 115,100 Z"/>
        <path d="M 60,55 L 65,60 L 60,65 L 55,60 Z" fill="#c9a961" fill-opacity="0.15" stroke="none"/>
      </g>
    </pattern>

    <filter id="softGlow" x="-20%" y="-20%" width="140%" height="140%">
      <feGaussianBlur stdDeviation="3"/>
    </filter>

  </defs>

  <!-- ═══════════════════════════════════════════════════════
       LAYER 1 — Carpet base
  ═══════════════════════════════════════════════════════ -->
  <rect width="1600" height="1000" fill="url(#carpetBase)"/>

  <!-- ═══════════════════════════════════════════════════════
       LAYER 2 — Carpet swirl pattern
  ═══════════════════════════════════════════════════════ -->
  <rect width="1600" height="1000" fill="url(#swirlPattern)" opacity="0.6"/>

  <!-- ═══════════════════════════════════════════════════════
       LAYER 3 — Winding paths
       Entrance: bottom-center (wider now). Branches reach BOTH zone columns.
  ═══════════════════════════════════════════════════════ -->

  <!-- Main path: bottom entrance → snakes up center → branches to LEFT zone (zone 2) -->
  <path d="
    M 800,1000
    C 800,920 720,880 640,860
    C 540,835 460,790 480,700
    C 500,620 380,600 300,560
    C 240,530 220,460 240,400
    C 260,340 280,300 280,260
  "
    fill="none"
    stroke="url(#pathGrad)"
    stroke-width="110"
    stroke-linecap="round"
    stroke-linejoin="round"
    opacity="0.9"/>

  <!-- Branch up to top row (zone 1) -->
  <path d="
    M 480,700
    C 540,640 620,580 700,500
    C 760,440 740,340 680,280
    C 620,230 540,210 500,180
  "
    fill="none"
    stroke="url(#pathGrad)"
    stroke-width="90"
    stroke-linecap="round"
    stroke-linejoin="round"
    opacity="0.85"/>

  <!-- Branch right: connects to RIGHT zone (zone 3) -->
  <path d="
    M 800,1000
    C 820,900 880,850 960,820
    C 1080,775 1180,720 1240,640
    C 1300,560 1320,460 1340,380
  "
    fill="none"
    stroke="url(#pathGrad)"
    stroke-width="100"
    stroke-linecap="round"
    stroke-linejoin="round"
    opacity="0.88"/>

  <!-- Right zone connector — extends path INTO zone 3 area -->
  <path d="
    M 1240,640
    C 1320,620 1380,600 1420,580
  "
    fill="none"
    stroke="url(#pathGrad)"
    stroke-width="80"
    stroke-linecap="round"
    stroke-linejoin="round"
    opacity="0.8"/>

  <!-- Gold trim along main path -->
  <path d="
    M 800,1000
    C 800,920 720,880 640,860
    C 540,835 460,790 480,700
    C 500,620 380,600 300,560
    C 240,530 220,460 240,400
    C 260,340 280,300 280,260
  "
    fill="none"
    stroke="#c9a961"
    stroke-width="2"
    stroke-linecap="round"
    opacity="0.4"/>

  <!-- Gold trim along right branch -->
  <path d="
    M 800,1000
    C 820,900 880,850 960,820
    C 1080,775 1180,720 1240,640
    C 1300,560 1320,460 1340,380
  "
    fill="none"
    stroke="#c9a961"
    stroke-width="2"
    stroke-linecap="round"
    opacity="0.4"/>

  <!-- ═══════════════════════════════════════════════════════
       LAYER 4 — Machine zones
       Bar moved LEFT (was x=1160, now x=1080)
  ═══════════════════════════════════════════════════════ -->

  <!-- Zone 1: top slot bank (narrowed since bar moved left) -->
  <rect x="240" y="60" width="800" height="200" rx="20"
        fill="url(#zoneGlow)"/>

  <!-- Bar area — moved left -->
  <rect x="1080" y="60" width="340" height="220" rx="20"
        fill="url(#barLight)"/>

  <!-- Zone 2: left column -->
  <rect x="80" y="320" width="240" height="540" rx="20"
        fill="url(#zoneGlow)"/>

  <!-- Zone 3: right column -->
  <rect x="1280" y="320" width="240" height="540" rx="20"
        fill="url(#zoneGlow)"/>

  <!-- ═══════════════════════════════════════════════════════
       LAYER 5 — Light pools over zones
  ═══════════════════════════════════════════════════════ -->

  <!-- Top zone (3 lights for centered slots) -->
  <ellipse cx="420" cy="160" rx="200" ry="120" fill="url(#lightPool)"/>
  <ellipse cx="640" cy="160" rx="200" ry="120" fill="url(#lightPool)"/>
  <ellipse cx="860" cy="160" rx="200" ry="120" fill="url(#lightPool)"/>

  <!-- Left zone -->
  <ellipse cx="200" cy="590" rx="180" ry="280" fill="url(#lightPool)"/>

  <!-- Right zone -->
  <ellipse cx="1400" cy="590" rx="180" ry="280" fill="url(#lightPool)"/>

  <!-- ═══════════════════════════════════════════════════════
       LAYER 6 — Entrance (bottom only, WIDER)
  ═══════════════════════════════════════════════════════ -->

  <!-- Wider bottom entrance glow (was rx=180, now rx=260) -->
  <ellipse cx="800" cy="980" rx="260" ry="70" fill="url(#entranceGlow)"/>

  <!-- Wider gold threshold strip -->
  <rect x="640" y="985" width="320" height="6" fill="#c9a961" opacity="0.7"/>
  <rect x="640" y="985" width="320" height="6" fill="#e8c87a" opacity="0.4" filter="url(#softGlow)"/>

  <!-- ═══════════════════════════════════════════════════════
       LAYER 7 — Vignette
  ═══════════════════════════════════════════════════════ -->
  <rect width="1600" height="1000" fill="url(#vignette)"/>

</svg>
